<svg xmlns:xlink="http://www.w3.org/1999/xlink" width="513.108" xmlns="http://www.w3.org/2000/svg" height="590.592" id="screenshot-a5fbca6d-21b4-80b1-8003-8b3546e3348e" viewBox="-1.108 -59.561 513.108 590.592" style="-webkit-print-color-adjust: exact;" fill="none" version="1.1"><g id="shape-a5fbca6d-21b4-80b1-8003-8b3546e3348e"><g fill="none"><g class="fills" id="fills-a5fbca6d-21b4-80b1-8003-8b3546e3348e"><rect rx="0" ry="0" x="0" y="0" transform="matrix(1.000000, 0.000000, 0.000000, 1.000000, 0.000000, 0.000000)" width="512" height="512" class="frame-background"/></g><g class="frame-children"><g id="shape-b6bb7a53-609c-80c1-8003-8cbc3984e912"><g class="fills" id="fills-b6bb7a53-609c-80c1-8003-8cbc3984e912"><path rx="0" ry="0" d="M114.154,156.845C112.427,119.043,125.201,80.057,152.741,49.310C206.561,-10.778,296.525,-16.789,353.515,35.895C410.506,88.579,413.080,180.136,359.259,240.223C342.150,259.325,321.388,272.962,299.193,280.985C299.154,281.132,299.157,281.279,299.158,281.427C299.534,348.358,299.756,421.623,299.824,501.221C299.820,505.150,298.388,508.395,295.547,510.933C293.842,512.416,291.366,512.352,289.891,510.750C288.021,508.743,286.267,506.566,284.629,504.217C263.064,472.800,240.876,439.378,218.047,403.971C212.777,395.802,207.594,389.899,202.500,386.302C195.208,381.150,187.337,378.839,178.905,379.348C165.757,380.144,152.248,387.799,139.015,390.503C123.605,393.698,114.769,383.265,114.707,368.985C114.551,292.875,114.363,222.153,114.154,156.845Z" style="fill: rgb(255, 187, 42); fill-opacity: 1;"/></g></g></g></g></g></svg>