<svg xmlns:xlink="http://www.w3.org/1999/xlink" width="512" xmlns="http://www.w3.org/2000/svg" height="512" id="screenshot-a5fbca6d-21b4-80b1-8003-8b3546e3348e" viewBox="0 0 512 512" style="-webkit-print-color-adjust: exact;" fill="none" version="1.1"><g id="shape-a5fbca6d-21b4-80b1-8003-8b3546e3348e"><g fill="none"><g class="fills" id="fills-a5fbca6d-21b4-80b1-8003-8b3546e3348e"><rect rx="0" ry="0" x="0" y="0" transform="matrix(1.000000, 0.000000, 0.000000, 1.000000, 0.000000, 0.000000)" width="512" height="512" class="frame-background"/></g><g class="frame-children"><g id="shape-3166b241-6966-80fc-8003-8b364b88271f"><g class="fills" id="fills-3166b241-6966-80fc-8003-8b364b88271f"><path rx="0" ry="0" d="M207.210,214.025C212.616,203.697,212.001,186.015,211.246,173.847C210.437,160.277,213.072,142.795,229.513,140.132C233.923,139.397,238.143,139.640,242.184,140.816C314.780,162.145,394.175,185.700,480.370,211.479C484.622,212.760,487.606,215.376,489.305,219.301C490.280,221.643,489.297,224.324,487.018,225.414C484.156,226.802,481.151,228.009,478.003,229.033C436.030,242.362,391.655,255.718,344.896,269.130C334.106,272.227,325.802,275.965,320.027,280.356C311.758,286.640,306.350,294.479,303.787,303.844C299.794,318.451,303.093,335.678,301.134,350.997C298.902,368.851,284.345,375.104,268.864,370.534C184.437,345.394,106.113,322.127,33.939,300.743C30.328,299.658,27.161,297.901,24.450,295.429C21.848,293.082,22.274,288.912,25.256,287.078C28.731,284.920,32.299,283.313,35.941,282.229C82.767,268.213,130.046,253.934,177.750,239.411C190.572,235.517,200.383,227.060,207.210,214.025ZZ" style="fill: rgb(255, 187, 42); fill-opacity: 1;"/></g></g></g></g></g></svg>